<?xml version="1.0" encoding="UTF-8" standalone="no"?>
<!DOCTYPE svg PUBLIC "-//W3C//DTD SVG 1.1//EN" "http://www.w3.org/Graphics/SVG/1.1/DTD/svg11.dtd">
<svg width="100%" height="100%" viewBox="0 0 650 686" version="1.1" xmlns="http://www.w3.org/2000/svg" xmlns:xlink="http://www.w3.org/1999/xlink" xml:space="preserve" xmlns:serif="http://www.serif.com/" style="fill-rule:evenodd;clip-rule:evenodd;stroke-linejoin:round;stroke-miterlimit:2;">
    <g id="Artboard1" transform="matrix(1,0,0,1,-779,-742)">
        <rect x="779" y="742" width="650" height="686" style="fill:none;"/>
        <g transform="matrix(1,0,0,1,353,164.569032)">
            <circle cx="746" cy="1145" r="45"/>
        </g>
        <g transform="matrix(0,-1,1,0,192.478669,1817.569032)">
            <circle cx="746" cy="1145" r="45"/>
        </g>
        <g transform="matrix(1,0,0,1,353,-311.430968)">
            <circle cx="746" cy="1145" r="45"/>
        </g>
        <g transform="matrix(1,0,0,1,353,-70.430968)">
            <circle cx="746" cy="1145" r="45"/>
        </g>
        <g transform="matrix(0,-1,1,0,-283.521331,1817.569032)">
            <circle cx="746" cy="1145" r="45"/>
        </g>
        <g transform="matrix(0,-1,1,0,-166.828702,1701.377182)">
            <circle cx="746" cy="1145" r="45"/>
        </g>
        <g transform="matrix(0,-1,1,0,-166.828702,1943.377182)">
            <circle cx="746" cy="1145" r="45"/>
        </g>
        <g transform="matrix(0,-1,1,0,79.171298,1701.377182)">
            <circle cx="746" cy="1145" r="45"/>
        </g>
        <g transform="matrix(0,-1,1,0,79.171298,1943.377182)">
            <circle cx="746" cy="1145" r="45"/>
        </g>
    </g>
</svg>
